<svg width="612" height="402" viewBox="0 0 612 402" fill="none" xmlns="http://www.w3.org/2000/svg">
<g clip-path="url(#clip0_1061_12156)">
<path d="M532.297 382.361C532.297 393.196 432.814 401.976 310.076 401.976C187.338 401.976 87.8555 393.196 87.8555 382.361C87.8555 371.527 187.338 362.747 310.076 362.747C432.814 362.747 532.297 371.527 532.297 382.361Z" fill="#8AA1BD"/>
<path d="M156.763 306.031H173.898C175.783 306.031 177.325 307.572 177.325 309.455V318.92H154.07V308.721C154.07 307.229 155.27 306.031 156.763 306.031Z" fill="#333333"/>
<path d="M154.07 321.194H177.325V379.475C177.325 380.967 176.126 382.166 174.633 382.166H156.763C155.27 382.166 154.07 380.967 154.07 379.475V321.194Z" fill="#333333"/>
<path d="M176.638 318.919H154.754V321.218H176.638V318.919Z" fill="#012E65"/>
<path opacity="0.2" d="M160.63 307.498H156.664V318.919H160.63V307.498Z" fill="white"/>
<path opacity="0.2" d="M160.63 321.219H156.664V379.255H160.63V321.219Z" fill="white"/>
<path opacity="0.15" d="M160.433 318.969H156.957V321.17H160.433V318.969Z" fill="white"/>
<g opacity="0.3">
<path d="M428.112 0H179.797V218.059H428.112V0Z" fill="#8AA1BD"/>
<path opacity="0.8" d="M418.248 5.57617H189.688V64.8111H418.248V5.57617Z" fill="white"/>
<path opacity="0.8" d="M257.59 75.5479H193.137V208.178H257.59V75.5479Z" fill="white"/>
<path opacity="0.8" d="M336.192 75.5479H271.738V208.178H336.192V75.5479Z" fill="white"/>
<path opacity="0.8" d="M414.82 75.5479H350.367V208.178H414.82V75.5479Z" fill="white"/>
</g>
<path d="M323.346 204.167C321.266 206.515 318.255 210.257 314.436 214.684C309.932 219.918 305.354 225.054 305.012 224.736C304.326 224.1 289.957 204.167 289.957 204.167C291.72 200.792 292.674 197.784 293.188 195.167C293.482 193.675 293.629 192.355 293.678 191.156C293.678 191.156 293.923 186.705 289.957 171.224L327.655 163.422C325.77 166.87 323.102 172.642 321.853 180.224C321.535 182.107 321.29 184.088 321.168 186.167C320.776 193.749 322.098 200.01 323.346 204.167Z" fill="#FFAA83"/>
<path d="M286.382 145.666C293.163 150.093 295.048 159.191 290.617 165.965C286.186 172.74 277.08 174.623 270.299 170.196C263.519 165.769 261.634 156.671 266.064 149.897C270.495 143.122 279.601 141.239 286.382 145.666Z" fill="#333333"/>
<path d="M331.523 147.891C338.303 152.318 340.188 161.416 335.758 168.191C331.327 174.965 322.221 176.849 315.44 172.422C308.659 167.995 306.774 158.897 311.205 152.122C315.636 145.348 324.742 143.465 331.523 147.891Z" fill="#333333"/>
<path d="M327.655 163.446C325.77 166.895 323.102 172.667 321.853 180.248C315.195 191.645 306.75 201.135 298.525 198.615C296.64 198.029 294.853 196.855 293.188 195.191C293.482 193.7 293.629 192.379 293.678 191.181C293.678 191.181 293.923 186.729 289.957 171.248L327.655 163.446Z" fill="#D6653D"/>
<path d="M313.972 116.611C328.61 121.136 336.811 136.641 332.282 151.267C327.753 165.892 312.283 199.545 297.644 195.045C283.006 190.52 274.756 149.53 279.285 134.905C283.813 120.28 299.333 112.111 313.972 116.611Z" fill="#FFAA83"/>
<path d="M288.167 124.29C294.948 128.717 296.833 137.815 292.402 144.59C287.971 151.364 278.865 153.247 272.084 148.821C265.304 144.394 263.419 135.296 267.85 128.521C272.28 121.747 281.387 119.864 288.167 124.29Z" fill="#333333"/>
<path d="M331.373 120.915C338.325 125.464 340.259 134.758 335.706 141.704C331.153 148.65 321.851 150.582 314.899 146.033C307.947 141.484 306.013 132.19 310.566 125.244C315.119 118.298 324.421 116.366 331.373 120.915Z" fill="#333333"/>
<path d="M332.844 142.144C337.373 145.104 338.646 151.193 335.684 155.718C332.722 160.243 326.627 161.514 322.098 158.555C317.569 155.596 316.297 149.506 319.259 144.981C322.221 140.457 328.316 139.185 332.844 142.144Z" fill="#333333"/>
<path d="M310.568 104.211C319.527 110.081 322.024 122.065 316.149 131.016C310.274 139.967 298.279 142.462 289.32 136.592C280.36 130.723 277.864 118.739 283.739 109.787C289.614 100.836 301.608 98.3416 310.568 104.211Z" fill="#333333"/>
<path d="M258.768 160.487C258.083 172.667 267.042 208.007 270.885 214.415C274.728 220.798 267.997 251.076 258.768 249.144C249.54 247.236 239.528 233.809 236.321 217.178C233.114 200.548 230.568 160.707 232.478 153.028C234.387 145.348 274.924 114.239 283.247 108.271C291.57 102.304 298.816 94.2085 298.816 94.2085L305.009 103.38C305.009 103.38 259.233 151.976 258.768 160.511V160.487Z" fill="#FFAA83"/>
<path d="M351.253 160.487C351.938 172.667 342.979 208.007 339.135 214.415C335.292 220.798 342.024 251.076 351.253 249.144C360.481 247.236 370.493 233.809 373.7 217.178C376.907 200.548 379.452 160.707 377.543 153.028C375.634 145.348 335.096 114.239 326.774 108.271C318.451 102.304 311.205 94.2085 311.205 94.2085L305.012 103.38C305.012 103.38 350.788 151.976 351.253 160.511V160.487Z" fill="#FFAA83"/>
<path d="M345.108 210.721C340.408 206.613 323.346 204.167 323.346 204.167C318.524 209.279 312.355 210.942 306.7 210.697L306.651 212.262L306.602 210.697C300.948 210.942 294.779 209.279 289.957 204.167C289.957 204.167 272.895 206.613 268.195 210.721C263.495 214.83 254.805 245.304 260.753 262.766C266.701 280.253 273.09 313.808 271.915 331.343H341.362C340.187 313.808 346.601 280.253 352.525 262.766C358.473 245.279 349.783 214.806 345.083 210.721H345.108Z" fill="#01336F"/>
<path d="M272.087 327.308C272.087 327.308 289.369 334.352 341.24 327.308L345.084 357.879L290.912 361.523L265.355 355.605L272.063 327.333L272.087 327.308Z" fill="#345C8C"/>
<path d="M297.445 95.6758C297.689 92.5698 295.388 86.3332 295.609 81.075C295.853 75.7923 297.934 54.2212 300.48 54.2212C303.026 54.2212 303.932 57.8897 303.932 57.8897C303.932 57.8897 305.449 53.9032 307.53 54.2212C309.611 54.5391 309.439 59.5773 309.537 64.7622C309.611 69.947 310.174 77.5532 310.981 81.4663C311.789 85.3794 312.352 96.165 312.352 96.165C312.352 96.165 308.411 103.527 305.009 103.355C301.63 103.209 297.445 95.6758 297.445 95.6758Z" fill="#FFAA83"/>
<path d="M303.982 59.2349C304.741 73.6645 305.084 88.0942 305.01 102.548C304.252 88.1186 303.909 73.689 303.982 59.2349Z" fill="#D6653D"/>
<path d="M300.309 363.309C320.578 354.333 389.535 264.038 417.637 286.612C445.739 309.186 408.653 354.92 380.552 364.189C352.45 373.459 287.556 389.943 287.556 389.943L277.984 372.285L300.285 363.309H300.309Z" fill="#8AA1BD"/>
<g opacity="0.3">
<path d="M312.771 354.04L336.589 370.768L328.34 374.73L304.375 361.426L312.771 354.04Z" fill="#333333"/>
</g>
<path d="M330.737 371.698C337.836 370.108 392.743 343.621 391.568 372.7C390.417 401.78 326.086 392.535 326.086 392.535L314.508 389.209L321.019 370.255L330.713 371.698H330.737Z" fill="#345C8C"/>
<path d="M319.429 367.931C319.429 367.931 332.33 372.26 336.956 372.554C341.583 372.847 350.86 370.524 350.713 377.176C350.566 383.828 345.94 392.951 334.484 392.364C323.028 391.777 314.484 389.184 314.484 389.184L319.405 367.907L319.429 367.931Z" fill="#FFAA83"/>
<path d="M275.61 373.165C268.364 372.553 210.373 353.77 215.465 382.434C220.581 411.098 283.027 393.195 283.027 393.195L294.042 388.328L285.009 370.426L275.585 373.189L275.61 373.165Z" fill="#345C8C"/>
<path d="M286.284 367.882C286.284 367.882 274.093 373.948 269.54 374.853C264.987 375.757 255.489 374.73 256.542 381.309C257.594 387.888 263.42 396.277 274.681 394.149C285.941 392.021 294.044 388.279 294.044 388.279L286.259 367.882H286.284Z" fill="#FFAA83"/>
<path d="M187.315 299.916C200.999 272.549 324.348 366.782 324.348 366.782L319.134 393.269C319.134 393.269 236.86 367.222 213.826 358.98C190.791 350.738 173.411 327.724 187.315 299.941V299.916Z" fill="#55769F"/>
<path d="M498.614 293.411C496.411 295.808 493.497 297.397 490.536 298.767C488.993 299.476 487.329 300.137 485.664 299.843C483.192 299.427 481.527 297.153 480.156 295.05C478.859 293.069 477.513 291.039 477.097 288.691C476.534 285.682 477.586 282.454 476.631 279.544C475.799 276.976 473.596 275.117 471.491 273.405C467.648 270.275 463.829 267.144 459.986 264.014C456.755 261.372 453.352 258.486 452.177 254.475C451.051 250.636 452.079 246.038 449.558 242.932C446.938 239.728 442.092 239.948 438.248 238.432C434.454 236.915 431.59 233.565 429.974 229.823C428.359 226.081 427.845 221.947 427.698 217.863C427.551 213.436 427.82 208.839 429.754 204.852C431.933 200.401 436.192 197.026 441.039 195.925C445.886 194.825 451.173 196.048 455.065 199.129C457.489 201.061 459.325 203.605 461.136 206.124C466.742 213.95 472.348 221.801 476.901 230.263C479.006 234.152 480.891 238.211 483.632 241.684C486.79 245.695 490.952 248.801 494.061 252.812C497.904 257.777 499.96 263.916 503.607 269.027C504.513 270.299 505.541 271.571 505.737 273.112C505.859 274.09 505.59 275.068 505.345 276.022C503.926 281.5 502.555 289.082 498.589 293.386L498.614 293.411Z" fill="#8AA1BD"/>
<path d="M543.238 293.68C544.976 296.223 548.575 297.299 551.439 296.125C554.132 295.025 555.821 292.359 557.069 289.742C558.538 286.709 559.639 283.506 560.398 280.204C561.328 276.095 561.769 271.693 564.095 268.171C567.105 263.598 572.589 261.494 577.582 259.244C582.576 256.994 587.839 253.815 589.308 248.557C590.312 244.961 589.332 240.853 591.168 237.575C593.102 234.127 597.386 232.929 600.984 231.241C603.922 229.871 606.639 227.988 608.94 225.689C610.556 224.1 612.049 222.119 612.049 219.844C612.049 216.885 609.503 214.512 606.859 213.216C600.054 209.89 591.609 211.137 585.122 215.075C578.635 218.988 573.862 225.249 570.19 231.877C568.746 234.469 567.448 237.16 565.955 239.703C562.259 245.964 557.289 251.491 554.376 258.144C551.17 265.554 550.558 274.236 545.539 280.571C542.945 283.824 540.595 289.742 543.263 293.631L543.238 293.68Z" fill="#8AA1BD"/>
<path d="M514.108 265.725C514.108 269.223 514.133 272.818 515.332 276.095C516.532 279.372 519.2 282.356 522.652 282.943C525.712 283.457 528.918 281.916 530.803 279.47C532.688 277 533.373 273.747 533.055 270.666C532.615 266.068 530.167 261.861 529.481 257.263C528.771 252.641 529.873 247.97 531.121 243.47C533.643 234.298 536.727 225.249 538.294 215.858C539.444 209.034 539.836 201.795 543.41 195.876C546.494 190.789 551.561 187.243 555.331 182.62C559.101 178.023 561.451 171.15 558.122 166.21C556.163 163.324 552.761 161.832 549.554 160.487C542.602 157.576 534.867 154.642 527.719 157.014C524.928 157.943 522.456 159.631 520.253 161.563C514.818 166.308 510.706 173.229 511.416 180.419C511.783 184.21 513.448 187.756 514.794 191.327C518.882 202.039 520.375 213.705 519.127 225.102C517.633 238.798 514.035 251.883 514.06 265.725H514.108Z" fill="#8AA1BD"/>
<path d="M535.43 332.395H535.381C535.186 332.371 535.039 332.175 535.088 331.98C535.112 331.759 538.613 310.457 548.429 286.196C554.206 271.938 560.986 259.44 568.599 249.07C578.146 236.108 589.015 226.423 600.936 220.333C601.108 220.235 601.328 220.333 601.426 220.505C601.524 220.676 601.426 220.896 601.254 220.994C574.474 234.69 558.098 264.16 549.09 286.465C539.298 310.653 535.822 331.882 535.798 332.077C535.773 332.249 535.602 332.395 535.43 332.395Z" fill="#55769F"/>
<path d="M509.067 346.752C508.871 346.752 508.7 346.605 508.7 346.385C507.378 303.34 489.924 270.03 475.531 249.657C459.913 227.572 444.418 215.515 444.271 215.393C444.1 215.271 444.075 215.026 444.198 214.879C444.32 214.708 444.54 214.684 444.712 214.806C444.859 214.928 460.452 227.034 476.118 249.192C485.322 262.204 492.764 276.095 498.247 290.476C505.101 308.452 508.871 327.259 509.459 346.336C509.459 346.531 509.312 346.703 509.091 346.703L509.067 346.752Z" fill="#55769F"/>
<path d="M524.071 340.955C523.875 340.955 523.703 340.808 523.703 340.613C520.962 287.248 524.903 243.005 528.697 215.295C532.81 185.262 537.632 167.604 537.681 167.433C537.73 167.237 537.95 167.115 538.146 167.188C538.342 167.237 538.464 167.433 538.391 167.628C538.342 167.799 533.52 185.409 529.432 215.393C525.637 243.078 521.696 287.248 524.438 340.564C524.438 340.759 524.291 340.931 524.095 340.955H524.071Z" fill="#55769F"/>
<path d="M520.986 380.771C500.228 380.771 483.387 363.945 483.387 343.205V305.957H558.586V343.205C558.586 363.945 541.745 380.771 520.986 380.771Z" fill="#55769F"/>
<path d="M555.136 312.365H486.84V314.126H555.136V312.365Z" fill="#8AA1BD"/>
<path d="M555.136 319.433H486.84V321.194H555.136V319.433Z" fill="#8AA1BD"/>
<g opacity="0.3">
<path d="M140.486 75.939H38.457V118.421H140.486V75.939Z" fill="#55769F"/>
<path d="M135.882 80.9038H43.4492V113.432H135.882V80.9038Z" fill="white"/>
<path d="M76.8887 88.5831C76.8887 91.2245 74.7346 93.3767 72.0909 93.3767C69.4471 93.3767 67.293 91.2245 67.293 88.5831C67.293 85.9418 69.4471 83.7896 72.0909 83.7896C74.7346 83.7896 76.8887 85.9418 76.8887 88.5831Z" fill="#55769F"/>
<g opacity="0.6">
<path d="M43.4492 113.432L79.2375 100.763L104.157 104.113L135.882 89.2925V113.432H43.4492Z" fill="#8AA1BD"/>
</g>
<g opacity="0.6">
<path d="M135.882 113.431L113.728 106.559L78.9928 109.347L43.4492 89.6348V113.431H135.882Z" fill="#8AA1BD"/>
</g>
</g>
<path d="M76.6361 273.894C77.909 278.908 77.3459 284.631 74.0413 288.593C71.6179 291.503 67.9705 293.191 64.3231 294.267C53.2586 297.495 40.1378 295.368 32.3535 286.881C29.8077 284.093 27.8983 280.767 26.2337 277.392C24.6426 274.188 23.1983 270.862 22.6353 267.315C21.289 258.976 25.4259 250 32.6717 245.598C52.0836 233.785 72.2543 256.628 76.6361 273.894Z" fill="#8AA1BD"/>
<path d="M95.8754 256.261C97.3686 259.807 99.5717 263.378 103.146 264.796C106.94 266.313 111.371 264.918 114.528 262.35C117.686 259.782 119.84 256.212 121.921 252.714C126.352 245.279 130.88 237.453 131.248 228.795C131.59 220.431 127.649 212.018 121.015 206.931C109.853 198.371 102.093 206.05 97.8582 216.029C92.3015 229.113 90.1473 242.687 95.8754 256.236V256.261Z" fill="#8AA1BD"/>
<path d="M138.594 263.451C134.849 268.44 131.863 274.799 133.625 280.791C135.069 285.658 139.843 289.351 144.934 289.546C148.019 289.644 151.03 288.593 153.869 287.419C160.381 284.728 166.672 281.28 171.69 276.34C176.708 271.399 180.38 264.845 180.87 257.826C180.992 256.089 180.919 254.304 180.16 252.739C176.928 245.989 163.098 245.035 156.831 247.211C149.757 249.682 142.854 257.703 138.57 263.426L138.594 263.451Z" fill="#8AA1BD"/>
<path d="M107.503 344.917C107.503 344.917 107.479 344.917 107.455 344.917C107.308 344.893 107.21 344.746 107.234 344.599C107.259 344.428 109.902 328.287 117.344 309.87C121.726 299.06 126.866 289.571 132.643 281.72C139.889 271.889 148.139 264.552 157.171 259.929C157.318 259.856 157.465 259.929 157.539 260.051C157.612 260.198 157.539 260.345 157.416 260.418C137.099 270.813 124.688 293.142 117.858 310.066C110.441 328.409 107.797 344.526 107.773 344.673C107.773 344.819 107.626 344.917 107.503 344.917Z" fill="#55769F"/>
<path d="M87.5065 355.801C87.3596 355.801 87.2372 355.678 87.2372 355.532C86.2336 322.881 72.9904 297.593 62.0483 282.136C50.2005 265.383 38.4505 256.261 38.3281 256.163C38.2057 256.065 38.1813 255.894 38.2792 255.771C38.3771 255.649 38.5484 255.625 38.6708 255.722C38.7932 255.82 50.5921 264.992 62.4889 281.818C69.4654 291.699 75.1201 302.24 79.2815 313.148C84.4711 326.795 87.3351 341.053 87.7757 355.532C87.7757 355.678 87.6534 355.825 87.5065 355.825V355.801Z" fill="#55769F"/>
<path d="M98.8856 351.399C98.7388 351.399 98.6164 351.276 98.6164 351.13C96.5356 310.653 99.5221 277.098 102.411 256.065C105.519 233.296 109.191 219.893 109.24 219.771C109.289 219.624 109.436 219.526 109.583 219.575C109.73 219.624 109.828 219.771 109.779 219.918C109.73 220.04 106.082 233.418 102.974 256.163C100.11 277.147 97.0987 310.678 99.1794 351.105C99.1794 351.252 99.057 351.399 98.9101 351.399H98.8856Z" fill="#55769F"/>
<path d="M96.5376 381.603C80.7976 381.603 68.0195 368.837 68.0195 353.111V324.863H125.056V353.111C125.056 368.837 112.278 381.603 96.5376 381.603Z" fill="#55769F"/>
<path d="M122.438 329.729H70.6406V331.075H122.438V329.729Z" fill="#8AA1BD"/>
<path d="M122.438 335.085H70.6406V336.431H122.438V335.085Z" fill="#8AA1BD"/>
<g opacity="0.3">
<path d="M520.986 112.478C502.382 112.478 487.254 97.3633 487.254 78.776C487.254 60.1887 502.382 45.0742 520.986 45.0742C539.59 45.0742 554.718 60.1887 554.718 78.776C554.718 97.3633 539.59 112.478 520.986 112.478ZM520.986 47.2753C503.606 47.2753 489.457 61.4115 489.457 78.776C489.457 96.1405 503.606 110.277 520.986 110.277C538.366 110.277 552.515 96.1405 552.515 78.776C552.515 61.4115 538.366 47.2753 520.986 47.2753Z" fill="#8AA1BD"/>
<path d="M522.111 59.0391H518.023V80.0232H522.111V59.0391Z" fill="#8AA1BD"/>
<path d="M543.195 95.5946L544.766 93.0571L519.597 77.5021L518.026 80.0397L543.195 95.5946Z" fill="#8AA1BD"/>
</g>
</g>
<defs>
<clipPath id="clip0_1061_12156">
<rect width="612" height="402" fill="white"/>
</clipPath>
</defs>
</svg>
